<?xml version="1.0" encoding="UTF-8" standalone="no"?>
<!DOCTYPE svg PUBLIC "-//W3C//DTD SVG 1.1//EN"
 "http://www.w3.org/Graphics/SVG/1.1/DTD/svg11.dtd">
<!-- Generated by graphviz version 2.38.0 (20140413.2041)
 -->
<!-- Title: controllers_diagram Pages: 1 -->
<svg width="556pt" height="419pt"
 viewBox="0.00 0.00 556.00 419.00" xmlns="http://www.w3.org/2000/svg" xmlns:xlink="http://www.w3.org/1999/xlink">
<g id="graph0" class="graph" transform="scale(1 1) rotate(0) translate(180 239.5)">
<title>controllers_diagram</title>
<polygon fill="none" stroke="none" points="-180,179.5 -180,-239.5 376,-239.5 376,179.5 -180,179.5"/>
<!-- _diagram_info -->
<g id="node1" class="node"><title>_diagram_info</title>
<text text-anchor="start" x="-135.5" y="-15.6" font-family="Times,serif" font-size="13.00">Controllers diagram</text>
<text text-anchor="start" x="-135.5" y="-1.6" font-family="Times,serif" font-size="13.00">Date: Oct 27 2016 &#45; 12:59</text>
<text text-anchor="start" x="-135.5" y="12.4" font-family="Times,serif" font-size="13.00">Migration version: 20161009195450</text>
<text text-anchor="start" x="-135.5" y="26.4" font-family="Times,serif" font-size="13.00">Generated by RailRoady 1.5.2</text>
<text text-anchor="start" x="-135.5" y="40.4" font-family="Times,serif" font-size="13.00">http://railroady.prestonlee.com</text>
</g>
<!-- ApplicationController -->
<g id="node2" class="node"><title>ApplicationController</title>
<path fill="none" stroke="black" d="M-164,175C-164,175 -16,175 -16,175 -10,175 -4,169 -4,163 -4,163 -4,93 -4,93 -4,87 -10,81 -16,81 -16,81 -164,81 -164,81 -170,81 -176,87 -176,93 -176,93 -176,163 -176,163 -176,169 -170,175 -164,175"/>
<text text-anchor="middle" x="-90" y="96.2" font-family="Times,serif" font-size="14.00">ApplicationController</text>
<polyline fill="none" stroke="black" points="-176,104 -4,104 "/>
<polyline fill="none" stroke="black" points="-176,128 -4,128 "/>
<polyline fill="none" stroke="black" points="-176,152 -4,152 "/>
<text text-anchor="start" x="-168" y="167.2" font-family="Times,serif" font-size="14.00">_layout</text>
</g>
<!-- FlightsController -->
<g id="node3" class="node"><title>FlightsController</title>
<path fill="none" stroke="black" d="M76,-64.5C76,-64.5 192,-64.5 192,-64.5 198,-64.5 204,-70.5 204,-76.5 204,-76.5 204,-205.5 204,-205.5 204,-211.5 198,-217.5 192,-217.5 192,-217.5 76,-217.5 76,-217.5 70,-217.5 64,-211.5 64,-205.5 64,-205.5 64,-76.5 64,-76.5 64,-70.5 70,-64.5 76,-64.5"/>
<text text-anchor="middle" x="134" y="-202.3" font-family="Times,serif" font-size="14.00">FlightsController</text>
<polyline fill="none" stroke="black" points="64,-194.5 204,-194.5 "/>
<text text-anchor="start" x="72" y="-179.3" font-family="Times,serif" font-size="14.00">index</text>
<text text-anchor="start" x="72" y="-164.3" font-family="Times,serif" font-size="14.00">show</text>
<text text-anchor="start" x="72" y="-149.3" font-family="Times,serif" font-size="14.00">update</text>
<polyline fill="none" stroke="black" points="64,-141.5 204,-141.5 "/>
<polyline fill="none" stroke="black" points="64,-117.5 204,-117.5 "/>
<text text-anchor="start" x="72" y="-102.3" font-family="Times,serif" font-size="14.00">_layout</text>
<text text-anchor="start" x="72" y="-87.3" font-family="Times,serif" font-size="14.00">allowed_params</text>
<text text-anchor="start" x="72" y="-72.3" font-family="Times,serif" font-size="14.00">set_flight</text>
</g>
<!-- PagesController -->
<g id="node4" class="node"><title>PagesController</title>
<path fill="none" stroke="black" d="M252,-33C252,-33 360,-33 360,-33 366,-33 372,-39 372,-45 372,-45 372,-115 372,-115 372,-121 366,-127 360,-127 360,-127 252,-127 252,-127 246,-127 240,-121 240,-115 240,-115 240,-45 240,-45 240,-39 246,-33 252,-33"/>
<text text-anchor="middle" x="306" y="-111.8" font-family="Times,serif" font-size="14.00">PagesController</text>
<polyline fill="none" stroke="black" points="240,-104 372,-104 "/>
<polyline fill="none" stroke="black" points="240,-80 372,-80 "/>
<polyline fill="none" stroke="black" points="240,-56 372,-56 "/>
<text text-anchor="start" x="248" y="-40.8" font-family="Times,serif" font-size="14.00">_layout</text>
</g>
<!-- SeatsController -->
<g id="node5" class="node"><title>SeatsController</title>
<path fill="none" stroke="black" d="M-84,-97C-84,-97 24,-97 24,-97 30,-97 36,-103 36,-109 36,-109 36,-223 36,-223 36,-229 30,-235 24,-235 24,-235 -84,-235 -84,-235 -90,-235 -96,-229 -96,-223 -96,-223 -96,-109 -96,-109 -96,-103 -90,-97 -84,-97"/>
<text text-anchor="middle" x="-30" y="-219.8" font-family="Times,serif" font-size="14.00">SeatsController</text>
<polyline fill="none" stroke="black" points="-96,-212 36,-212 "/>
<text text-anchor="start" x="-88" y="-196.8" font-family="Times,serif" font-size="14.00">show</text>
<text text-anchor="start" x="-88" y="-181.8" font-family="Times,serif" font-size="14.00">update</text>
<polyline fill="none" stroke="black" points="-96,-174 36,-174 "/>
<polyline fill="none" stroke="black" points="-96,-150 36,-150 "/>
<text text-anchor="start" x="-88" y="-134.8" font-family="Times,serif" font-size="14.00">_layout</text>
<text text-anchor="start" x="-88" y="-119.8" font-family="Times,serif" font-size="14.00">allowed_params</text>
<text text-anchor="start" x="-88" y="-104.8" font-family="Times,serif" font-size="14.00">set_seat</text>
</g>
<!-- TicketsController -->
<g id="node6" class="node"><title>TicketsController</title>
<path fill="none" stroke="black" d="M156.5,143C156.5,143 275.5,143 275.5,143 281.5,143 287.5,137 287.5,131 287.5,131 287.5,17 287.5,17 287.5,11 281.5,5 275.5,5 275.5,5 156.5,5 156.5,5 150.5,5 144.5,11 144.5,17 144.5,17 144.5,131 144.5,131 144.5,137 150.5,143 156.5,143"/>
<text text-anchor="middle" x="216" y="20.2" font-family="Times,serif" font-size="14.00">TicketsController</text>
<polyline fill="none" stroke="black" points="144.5,28 287.5,28 "/>
<text text-anchor="start" x="152.5" y="43.2" font-family="Times,serif" font-size="14.00">index</text>
<text text-anchor="start" x="152.5" y="58.2" font-family="Times,serif" font-size="14.00">update</text>
<polyline fill="none" stroke="black" points="144.5,66 287.5,66 "/>
<polyline fill="none" stroke="black" points="144.5,90 287.5,90 "/>
<text text-anchor="start" x="152.5" y="105.2" font-family="Times,serif" font-size="14.00">_layout</text>
<text text-anchor="start" x="152.5" y="120.2" font-family="Times,serif" font-size="14.00">allowed_params</text>
<text text-anchor="start" x="152.5" y="135.2" font-family="Times,serif" font-size="14.00">set_ticket</text>
</g>
</g>
</svg>
