<?xml version="1.0" encoding="UTF-8" standalone="no"?>
<!DOCTYPE svg PUBLIC "-//W3C//DTD SVG 1.1//EN"
 "http://www.w3.org/Graphics/SVG/1.1/DTD/svg11.dtd">
<!-- Generated by graphviz version 2.38.0 (20140413.2041)
 -->
<!-- Title: models_diagram Pages: 1 -->
<svg width="860pt" height="158pt"
 viewBox="0.00 0.00 860.00 158.00" xmlns="http://www.w3.org/2000/svg" xmlns:xlink="http://www.w3.org/1999/xlink">
<g id="graph0" class="graph" transform="scale(1 1) rotate(0) translate(4 154)">
<title>models_diagram</title>
<polygon fill="none" stroke="none" points="-4,4 -4,-154 855.997,-154 855.997,4 -4,4"/>
<!-- _diagram_info -->
<g id="node1" class="node"><title>_diagram_info</title>
<text text-anchor="start" x="8" y="-135.6" font-family="Times,serif" font-size="13.00">Models diagram</text>
<text text-anchor="start" x="8" y="-121.6" font-family="Times,serif" font-size="13.00">Date: Oct 27 2016 &#45; 12:59</text>
<text text-anchor="start" x="8" y="-107.6" font-family="Times,serif" font-size="13.00">Migration version: 20161009195450</text>
<text text-anchor="start" x="8" y="-93.6" font-family="Times,serif" font-size="13.00">Generated by RailRoady 1.5.2</text>
<text text-anchor="start" x="8" y="-79.6" font-family="Times,serif" font-size="13.00">http://railroady.prestonlee.com</text>
</g>
<!-- Airport -->
<g id="node2" class="node"><title>Airport</title>
<ellipse fill="none" stroke="black" cx="319.5" cy="-111" rx="44.393" ry="18"/>
<text text-anchor="middle" x="319.5" y="-107.3" font-family="Times,serif" font-size="14.00">Airport</text>
</g>
<!-- ApplicationRecord -->
<g id="node3" class="node"><title>ApplicationRecord</title>
<ellipse fill="none" stroke="black" cx="478.5" cy="-111" rx="96.6831" ry="18"/>
<text text-anchor="middle" x="478.5" y="-107.3" font-family="Times,serif" font-size="14.00">ApplicationRecord</text>
</g>
<!-- Flight -->
<g id="node4" class="node"><title>Flight</title>
<ellipse fill="none" stroke="black" cx="631.5" cy="-111" rx="38.1938" ry="18"/>
<text text-anchor="middle" x="631.5" y="-107.3" font-family="Times,serif" font-size="14.00">Flight</text>
</g>
<!-- Seat -->
<g id="node5" class="node"><title>Seat</title>
<ellipse fill="none" stroke="black" cx="631.5" cy="-18" rx="31.3957" ry="18"/>
<text text-anchor="middle" x="631.5" y="-14.3" font-family="Times,serif" font-size="14.00">Seat</text>
</g>
<!-- Flight&#45;&gt;Seat -->
<g id="edge1" class="edge"><title>Flight&#45;&gt;Seat</title>
<path fill="none" stroke="#3e473a" d="M631.5,-84.7285C631.5,-72.7246 631.5,-58.3622 631.5,-46.1291"/>
<ellipse fill="none" stroke="#3e473a" cx="631.5" cy="-88.8836" rx="4" ry="4"/>
<polygon fill="#3e473a" stroke="#3e473a" points="631.5,-46.0397 636,-36.0396 631.5,-41.0397 631.5,-36.0397 631.5,-36.0397 631.5,-36.0397 631.5,-41.0397 627,-36.0397 631.5,-46.0397 631.5,-46.0397"/>
</g>
<!-- Ticket -->
<g id="node6" class="node"><title>Ticket</title>
<ellipse fill="none" stroke="black" cx="728.5" cy="-111" rx="40.0939" ry="18"/>
<text text-anchor="middle" x="728.5" y="-107.3" font-family="Times,serif" font-size="14.00">Ticket</text>
</g>
<!-- User -->
<g id="node7" class="node"><title>User</title>
<ellipse fill="none" stroke="black" cx="819.5" cy="-111" rx="32.4942" ry="18"/>
<text text-anchor="middle" x="819.5" y="-107.3" font-family="Times,serif" font-size="14.00">User</text>
</g>
</g>
</svg>
