<?xml version="1.0" encoding="UTF-8" standalone="no"?>
<!DOCTYPE svg PUBLIC "-//W3C//DTD SVG 1.1//EN"
 "http://www.w3.org/Graphics/SVG/1.1/DTD/svg11.dtd">
<!-- Generated by graphviz version 2.38.0 (20140413.2041)
 -->
<!-- Title: models_diagram Pages: 1 -->
<svg width="1906pt" height="393pt"
 viewBox="0.00 0.00 1905.50 393.00" xmlns="http://www.w3.org/2000/svg" xmlns:xlink="http://www.w3.org/1999/xlink">
<g id="graph0" class="graph" transform="scale(1 1) rotate(0) translate(4 389)">
<title>models_diagram</title>
<polygon fill="none" stroke="none" points="-4,4 -4,-389 1901.5,-389 1901.5,4 -4,4"/>
<!-- _diagram_info -->
<g id="node1" class="node"><title>_diagram_info</title>
<text text-anchor="start" x="8" y="-296.1" font-family="Times,serif" font-size="13.00">Models diagram</text>
<text text-anchor="start" x="8" y="-282.1" font-family="Times,serif" font-size="13.00">Date: Oct 27 2016 &#45; 12:59</text>
<text text-anchor="start" x="8" y="-268.1" font-family="Times,serif" font-size="13.00">Migration version: 20161009195450</text>
<text text-anchor="start" x="8" y="-254.1" font-family="Times,serif" font-size="13.00">Generated by RailRoady 1.5.2</text>
<text text-anchor="start" x="8" y="-240.1" font-family="Times,serif" font-size="13.00">http://railroady.prestonlee.com</text>
</g>
<!-- Airport -->
<g id="node2" class="node"><title>Airport</title>
<path fill="none" stroke="black" d="M287.5,-218.5C287.5,-218.5 579.5,-218.5 579.5,-218.5 585.5,-218.5 591.5,-224.5 591.5,-230.5 591.5,-230.5 591.5,-312.5 591.5,-312.5 591.5,-318.5 585.5,-324.5 579.5,-324.5 579.5,-324.5 287.5,-324.5 287.5,-324.5 281.5,-324.5 275.5,-318.5 275.5,-312.5 275.5,-312.5 275.5,-230.5 275.5,-230.5 275.5,-224.5 281.5,-218.5 287.5,-218.5"/>
<text text-anchor="middle" x="433.5" y="-309.3" font-family="Times,serif" font-size="14.00">Airport</text>
<polyline fill="none" stroke="black" points="275.5,-301.5 591.5,-301.5 "/>
<text text-anchor="start" x="283.5" y="-286.3" font-family="Times,serif" font-size="14.00">id :integer</text>
<text text-anchor="start" x="283.5" y="-271.3" font-family="Times,serif" font-size="14.00">code :character varying</text>
<text text-anchor="start" x="283.5" y="-256.3" font-family="Times,serif" font-size="14.00">city :character varying</text>
<text text-anchor="start" x="283.5" y="-241.3" font-family="Times,serif" font-size="14.00">created_at :timestamp without time zone</text>
<text text-anchor="start" x="283.5" y="-226.3" font-family="Times,serif" font-size="14.00">updated_at :timestamp without time zone</text>
</g>
<!-- ApplicationRecord -->
<g id="node3" class="node"><title>ApplicationRecord</title>
<ellipse fill="none" stroke="black" cx="706.5" cy="-271.5" rx="96.6831" ry="18"/>
<text text-anchor="middle" x="706.5" y="-267.8" font-family="Times,serif" font-size="14.00">ApplicationRecord</text>
</g>
<!-- Flight -->
<g id="node4" class="node"><title>Flight</title>
<path fill="none" stroke="black" d="M833.5,-203.5C833.5,-203.5 1125.5,-203.5 1125.5,-203.5 1131.5,-203.5 1137.5,-209.5 1137.5,-215.5 1137.5,-215.5 1137.5,-327.5 1137.5,-327.5 1137.5,-333.5 1131.5,-339.5 1125.5,-339.5 1125.5,-339.5 833.5,-339.5 833.5,-339.5 827.5,-339.5 821.5,-333.5 821.5,-327.5 821.5,-327.5 821.5,-215.5 821.5,-215.5 821.5,-209.5 827.5,-203.5 833.5,-203.5"/>
<text text-anchor="middle" x="979.5" y="-324.3" font-family="Times,serif" font-size="14.00">Flight</text>
<polyline fill="none" stroke="black" points="821.5,-316.5 1137.5,-316.5 "/>
<text text-anchor="start" x="829.5" y="-301.3" font-family="Times,serif" font-size="14.00">id :integer</text>
<text text-anchor="start" x="829.5" y="-286.3" font-family="Times,serif" font-size="14.00">code :character varying</text>
<text text-anchor="start" x="829.5" y="-271.3" font-family="Times,serif" font-size="14.00">schedule :json</text>
<text text-anchor="start" x="829.5" y="-256.3" font-family="Times,serif" font-size="14.00">origin_id :integer</text>
<text text-anchor="start" x="829.5" y="-241.3" font-family="Times,serif" font-size="14.00">destination_id :integer</text>
<text text-anchor="start" x="829.5" y="-226.3" font-family="Times,serif" font-size="14.00">created_at :timestamp without time zone</text>
<text text-anchor="start" x="829.5" y="-211.3" font-family="Times,serif" font-size="14.00">updated_at :timestamp without time zone</text>
</g>
<!-- Seat -->
<g id="node5" class="node"><title>Seat</title>
<path fill="none" stroke="black" d="M833.5,-0.5C833.5,-0.5 1125.5,-0.5 1125.5,-0.5 1131.5,-0.5 1137.5,-6.5 1137.5,-12.5 1137.5,-12.5 1137.5,-109.5 1137.5,-109.5 1137.5,-115.5 1131.5,-121.5 1125.5,-121.5 1125.5,-121.5 833.5,-121.5 833.5,-121.5 827.5,-121.5 821.5,-115.5 821.5,-109.5 821.5,-109.5 821.5,-12.5 821.5,-12.5 821.5,-6.5 827.5,-0.5 833.5,-0.5"/>
<text text-anchor="middle" x="979.5" y="-106.3" font-family="Times,serif" font-size="14.00">Seat</text>
<polyline fill="none" stroke="black" points="821.5,-98.5 1137.5,-98.5 "/>
<text text-anchor="start" x="829.5" y="-83.3" font-family="Times,serif" font-size="14.00">id :integer</text>
<text text-anchor="start" x="829.5" y="-68.3" font-family="Times,serif" font-size="14.00">row :character varying</text>
<text text-anchor="start" x="829.5" y="-53.3" font-family="Times,serif" font-size="14.00">number :integer</text>
<text text-anchor="start" x="829.5" y="-38.3" font-family="Times,serif" font-size="14.00">flight_id :integer</text>
<text text-anchor="start" x="829.5" y="-23.3" font-family="Times,serif" font-size="14.00">created_at :timestamp without time zone</text>
<text text-anchor="start" x="829.5" y="-8.3" font-family="Times,serif" font-size="14.00">updated_at :timestamp without time zone</text>
</g>
<!-- Flight&#45;&gt;Seat -->
<g id="edge1" class="edge"><title>Flight&#45;&gt;Seat</title>
<path fill="none" stroke="#8db641" d="M979.5,-195.262C979.5,-174.538 979.5,-152.153 979.5,-131.753"/>
<ellipse fill="none" stroke="#8db641" cx="979.5" cy="-199.382" rx="4" ry="4"/>
<polygon fill="#8db641" stroke="#8db641" points="979.5,-131.602 984,-121.602 979.5,-126.602 979.5,-121.602 979.5,-121.602 979.5,-121.602 979.5,-126.602 975,-121.602 979.5,-131.602 979.5,-131.602"/>
</g>
<!-- Ticket -->
<g id="node6" class="node"><title>Ticket</title>
<path fill="none" stroke="black" d="M1167.5,-203.5C1167.5,-203.5 1459.5,-203.5 1459.5,-203.5 1465.5,-203.5 1471.5,-209.5 1471.5,-215.5 1471.5,-215.5 1471.5,-327.5 1471.5,-327.5 1471.5,-333.5 1465.5,-339.5 1459.5,-339.5 1459.5,-339.5 1167.5,-339.5 1167.5,-339.5 1161.5,-339.5 1155.5,-333.5 1155.5,-327.5 1155.5,-327.5 1155.5,-215.5 1155.5,-215.5 1155.5,-209.5 1161.5,-203.5 1167.5,-203.5"/>
<text text-anchor="middle" x="1313.5" y="-324.3" font-family="Times,serif" font-size="14.00">Ticket</text>
<polyline fill="none" stroke="black" points="1155.5,-316.5 1471.5,-316.5 "/>
<text text-anchor="start" x="1163.5" y="-301.3" font-family="Times,serif" font-size="14.00">id :integer</text>
<text text-anchor="start" x="1163.5" y="-286.3" font-family="Times,serif" font-size="14.00">user_id :integer</text>
<text text-anchor="start" x="1163.5" y="-271.3" font-family="Times,serif" font-size="14.00">flight_id :integer</text>
<text text-anchor="start" x="1163.5" y="-256.3" font-family="Times,serif" font-size="14.00">seat_id :integer</text>
<text text-anchor="start" x="1163.5" y="-241.3" font-family="Times,serif" font-size="14.00">checked_in :boolean</text>
<text text-anchor="start" x="1163.5" y="-226.3" font-family="Times,serif" font-size="14.00">created_at :timestamp without time zone</text>
<text text-anchor="start" x="1163.5" y="-211.3" font-family="Times,serif" font-size="14.00">updated_at :timestamp without time zone</text>
</g>
<!-- User -->
<g id="node7" class="node"><title>User</title>
<path fill="none" stroke="black" d="M1501.5,-158.5C1501.5,-158.5 1885.5,-158.5 1885.5,-158.5 1891.5,-158.5 1897.5,-164.5 1897.5,-170.5 1897.5,-170.5 1897.5,-372.5 1897.5,-372.5 1897.5,-378.5 1891.5,-384.5 1885.5,-384.5 1885.5,-384.5 1501.5,-384.5 1501.5,-384.5 1495.5,-384.5 1489.5,-378.5 1489.5,-372.5 1489.5,-372.5 1489.5,-170.5 1489.5,-170.5 1489.5,-164.5 1495.5,-158.5 1501.5,-158.5"/>
<text text-anchor="middle" x="1693.5" y="-369.3" font-family="Times,serif" font-size="14.00">User</text>
<polyline fill="none" stroke="black" points="1489.5,-361.5 1897.5,-361.5 "/>
<text text-anchor="start" x="1497.5" y="-346.3" font-family="Times,serif" font-size="14.00">id :integer</text>
<text text-anchor="start" x="1497.5" y="-331.3" font-family="Times,serif" font-size="14.00">email :character varying</text>
<text text-anchor="start" x="1497.5" y="-316.3" font-family="Times,serif" font-size="14.00">encrypted_password :character varying</text>
<text text-anchor="start" x="1497.5" y="-301.3" font-family="Times,serif" font-size="14.00">reset_password_token :character varying</text>
<text text-anchor="start" x="1497.5" y="-286.3" font-family="Times,serif" font-size="14.00">reset_password_sent_at :timestamp without time zone</text>
<text text-anchor="start" x="1497.5" y="-271.3" font-family="Times,serif" font-size="14.00">remember_created_at :timestamp without time zone</text>
<text text-anchor="start" x="1497.5" y="-256.3" font-family="Times,serif" font-size="14.00">sign_in_count :integer</text>
<text text-anchor="start" x="1497.5" y="-241.3" font-family="Times,serif" font-size="14.00">current_sign_in_at :timestamp without time zone</text>
<text text-anchor="start" x="1497.5" y="-226.3" font-family="Times,serif" font-size="14.00">last_sign_in_at :timestamp without time zone</text>
<text text-anchor="start" x="1497.5" y="-211.3" font-family="Times,serif" font-size="14.00">current_sign_in_ip :inet</text>
<text text-anchor="start" x="1497.5" y="-196.3" font-family="Times,serif" font-size="14.00">last_sign_in_ip :inet</text>
<text text-anchor="start" x="1497.5" y="-181.3" font-family="Times,serif" font-size="14.00">created_at :timestamp without time zone</text>
<text text-anchor="start" x="1497.5" y="-166.3" font-family="Times,serif" font-size="14.00">updated_at :timestamp without time zone</text>
</g>
</g>
</svg>
